<svg fill="none" height="770" viewBox="0 0 770 770" width="770" xmlns="http://www.w3.org/2000/svg"><path d="m395.725 30.7141-10.725-7.0625-10.725 7.0625-71.576 47.1345-85.554-5.0315-12.819-.7539-5.757 11.4785-38.419 76.6083-76.6083 38.419-11.4785 5.757.7539 12.819 5.0315 85.554-47.1345 71.576-7.0625 10.725 7.0625 10.725 47.1345 71.576-5.0315 85.554-.7539 12.819 11.4785 5.757 76.6083 38.419 38.419 76.608 5.757 11.479 12.819-.754 85.554-5.032 71.576 47.135 10.725 7.062 10.725-7.062 71.576-47.135 85.554 5.032 12.819.754 5.757-11.479 38.419-76.608 76.608-38.419 11.479-5.757-.754-12.819-5.032-85.554 47.135-71.576 7.062-10.725-7.062-10.725-47.135-71.576 5.032-85.554.754-12.819-11.479-5.757-76.608-38.419-38.419-76.6083-5.757-11.4785-12.819.7539-85.554 5.0315z" fill="#fff" fill-opacity=".4" stroke="#d8d8d8" stroke-width="39"/><path d="m402.618 217.498c2.319 6.308 5.857 12.128 10.734 17.017l55.63 55.758c1.631 1.646 3.773 2.467 5.916 2.467 2.142 0 4.284-.821 5.916-2.457l16.733-16.774c2.895-2.902 3.271-7.473.896-10.802l-7.79-10.936c-20.289-28.483-31.324-61.805-32.295-96.66 5.018-5.873 8.173-13.396 8.173-21.724v-8.387h-16.733v8.387c0 9.251-7.505 16.774-16.733 16.774-5.614 0-10.826-2.818-13.948-7.531-3.095-4.687-10.852-4.687-13.948 0-5.414 8.195-17.803 9.855-25.192 3.07-2.367-2.189-5.781-2.809-8.76-1.611-2.988 1.199-5.029 4.002-5.247 7.213-.591 8.765-7.87 15.633-16.571 15.633-1.816 0-3.664-.353-5.665-1.081-2.635-.982-5.605-.528-7.864 1.165-2.259 1.686-3.514 4.403-3.338 7.231 0 .209.11.863.134 1.072 0 9.251-7.497 16.766-16.506 16.766h-.009c-.176-.025-.986-.117-1.163-.135-2.785-.176-5.581 1.015-7.296 3.289-1.715 2.273-2.175 5.25-1.213 7.925.735 2.031 1.087 3.892 1.087 5.704 0 6.943-4.409 13.234-10.977 15.659-2.728 1.007-4.745 3.364-5.313 6.224s.376 5.812 2.51 7.8c3.498 3.245 5.414 7.589 5.414 12.253 0 5.385-2.535 10.307-6.962 13.536-2.367 1.728-3.664 4.571-3.413 7.507.251 2.926 2.008 5.51 4.643 6.811 3.147 1.551 5.848 3.681 8.032 6.206-2.994-.293-5.999-.512-9.044-.512h-35.089c-4.62 0-8.367 3.75-8.367 8.387 0 4.638 3.747 8.387 8.367 8.387 9.227 0 16.733 7.524 16.733 16.775 0 9.25-7.506 16.774-16.733 16.774-4.62 0-8.367 3.75-8.367 8.387s3.747 8.387 8.367 8.387c18.456 0 33.466 15.046 33.466 33.548 0 4.638 3.747 8.387 8.366 8.387 18.457 0 33.466 15.047 33.466 33.549 0 4.637 3.748 8.387 8.367 8.387s8.366-3.75 8.366-8.387c0-17.421 13.362-31.611 30.32-33.231l8.074 8.094c7.613 7.632 11.806 17.772 11.806 28.567 0 11.431-4.862 22.385-13.345 30.035l-28.99 26.15-9.278-13.947-13.922 9.301 10.635 15.986-2.451 2.213c-5.572 5.024-10.273 10.829-14.173 17.101l-17.854-5.963-5.295 15.902 15.788 5.275c-3.074 8.564-4.781 17.639-4.781 26.907v1.803h-16.733v16.774h17.821c6.049 37.96 38.845 67.097 78.396 67.097 43.823 0 79.48-35.746 79.48-79.675 0-21.169-8.224-41.072-23.158-56.044l-4.393-4.403c-1.565-1.576-3.698-2.457-5.916-2.457-18.456 0-33.466 15.046-33.466 33.549 0 2.231.879 4.361 2.451 5.93l7.856 7.875c4.084 4.092 6.426 9.762 6.426 15.549 0 16.188-13.136 29.355-29.283 29.355s-29.283-13.168-29.283-29.355v-4.511c0-8.136 3.413-15.969 9.362-21.504l62.675-58.352c28.656-26.671 45.095-64.462 45.095-103.673 0-45.107-21.729-87.879-58.124-114.418l-28.22-20.573c-3.564-2.591-5.689-6.776-5.689-11.197 0-6.802 4.928-12.437 11.387-13.596zm47.085 167.666 16.398.327c-.836 12.598-3.58 24.885-8.064 36.534-5.355-7.976-8.242-17.37-8.242-27.198v-7.306c0-.788-.075-1.569-.092-2.357zm9.263-50.493h-21.317c-2.821-5.804-6.108-11.415-9.873-16.774h23.528c2.926 5.41 5.552 10.979 7.662 16.774zm4.685 16.775c1.204 5.661 1.957 11.431 2.367 17.26l-17.737-.353c-.912-5.744-2.25-11.389-3.974-16.907zm-23.318-50.323h-22.381c-4.375-9.25-7.371-19.063-8.851-29.212l6.2 4.52c9.613 7.012 17.904 15.433 25.032 24.692zm-65.835-70.031c0 9.754 4.703 19.014 12.574 24.759l4.243 3.095c.451 24.532 8.124 48.005 22.389 68.018 12.667 17.772 19.36 38.715 19.36 60.557v7.306c0 16.505 6.099 32.038 17.118 44.14-6.208 10.946-14.056 21.001-23.402 29.7l-62.675 58.352c-9.344 8.696-14.708 21.008-14.708 33.791v4.511c0 25.431 20.641 46.127 46.014 46.127s46.014-20.698 46.014-46.127c0-10.207-4.124-20.195-11.328-27.408l-5.104-5.116c1.279-6.719 6.568-12.018 13.261-13.302l1.64 1.644c11.779 11.8 18.264 27.492 18.264 44.182 0 34.69-28.145 62.901-62.747 62.901s-62.747-28.213-62.747-62.901v-5.996c0-17.806 7.572-34.84 20.774-46.749l44.008-39.704c11.999-10.828 18.884-26.32 18.884-42.507 0-13.713-4.811-26.662-13.587-36.978h13.587v-16.774h-33.467c-17.435 0-32.829 8.956-41.832 22.536-5.832-8.782-14.34-15.617-24.347-19.356 9.245-7.482 20.657-11.567 32.713-11.567v-16.774c-16.64 0-32.337 5.913-44.822 16.666-3.807-10.652-11.068-19.617-20.456-25.581 11.563-5.142 24.071-7.859 36.872-7.859h3.304v-16.775h-3.304c-10.45 0-20.732 1.528-30.597 4.446.202-1.468.435-2.927.435-4.446 0-6.105-1.631-11.834-4.493-16.774h6.108c22.999 0 44.426 10.325 58.798 28.331l8.349 10.46 13.069-10.484-8.349-10.46c-11.053-13.839-25.527-23.954-41.732-29.565-2.217-7.623-6.525-14.459-12.54-19.701 3.78-5.518 5.889-12.102 5.889-18.904 0-5.586-1.431-11.071-4.082-15.935 7.704-6.257 12.449-15.777 12.449-26 0-.352-.009-.701-.018-1.052v-.005c11.764-3.037 21.033-12.338 24.063-24.122 13.311.234 25.484-7.398 31.073-18.955 10.859 4.176 23.794 2.022 32.731-5.175 5.856 4.723 13.194 7.373 20.916 7.373 3.137 0 6.108-.57 8.985-1.384.485 6.114 1.348 12.162 2.409 18.158h-11.394v16.775h15.168c5.89 21.713 15.478 42.346 28.798 61.035l3.673 5.15-5.806 5.829-49.713-49.826c-5.705-5.728-8.851-13.336-8.851-21.438 0-4.68 1.105-9.361 3.188-13.545l4.291-8.606-14.967-7.506-4.292 8.605c-3.212 6.441-4.912 13.647-4.945 20.86-14.249 2.582-25.108 15.046-25.108 30.059z" fill="#000"/><path d="m374.498 231.092c0 9.754 4.703 19.014 12.574 24.759l4.243 3.095c.451 24.532 8.124 48.005 22.389 68.018 12.667 17.772 19.36 38.715 19.36 60.557v7.306c0 16.505 6.099 32.038 17.118 44.14-6.208 10.946-14.056 21.001-23.402 29.7l-62.675 58.352c-9.344 8.696-14.708 21.008-14.708 33.791v4.511c0 25.431 20.641 46.127 46.014 46.127s46.014-20.698 46.014-46.127c0-10.207-4.124-20.195-11.328-27.408l-5.104-5.116c1.279-6.719 6.568-12.018 13.261-13.302l1.64 1.644c11.779 11.8 18.264 27.492 18.264 44.182 0 34.69-28.145 62.901-62.747 62.901s-62.747-28.213-62.747-62.901v-5.996c0-17.806 7.572-34.84 20.774-46.749l44.008-39.704c11.999-10.828 18.884-26.32 18.884-42.507 0-13.713-4.811-26.662-13.587-36.978h13.587v-16.774h-33.467c-17.435 0-32.829 8.956-41.832 22.536-5.832-8.782-14.34-15.617-24.347-19.356 9.245-7.482 20.657-11.567 32.713-11.567v-16.774c-16.64 0-32.337 5.913-44.822 16.666-3.807-10.652-11.068-19.617-20.456-25.581 11.563-5.142 24.071-7.859 36.872-7.859h3.304v-16.775h-3.304c-10.45 0-20.732 1.528-30.597 4.446.202-1.468.435-2.927.435-4.446 0-6.105-1.631-11.834-4.493-16.774h6.108c22.999 0 44.426 10.325 58.798 28.331l8.349 10.46 13.069-10.484-8.349-10.46c-11.053-13.839-25.527-23.954-41.732-29.565-2.217-7.623-6.525-14.459-12.54-19.701 3.78-5.518 5.889-12.102 5.889-18.904 0-5.586-1.431-11.071-4.082-15.935 7.704-6.257 12.449-15.777 12.449-26 0-.352-.009-.701-.018-1.052v-.005c11.764-3.037 21.033-12.338 24.063-24.122 13.311.234 25.484-7.398 31.073-18.955 10.859 4.176 23.794 2.022 32.731-5.175 5.856 4.723 13.194 7.373 20.916 7.373 3.137 0 6.108-.57 8.985-1.384.485 6.114 1.348 12.162 2.409 18.158h-11.394v16.775h15.168c5.89 21.713 15.478 42.346 28.798 61.035l3.673 5.15-5.806 5.829-49.713-49.826c-5.705-5.728-8.851-13.336-8.851-21.438 0-4.68 1.105-9.361 3.188-13.545l4.291-8.606-14.967-7.506-4.292 8.605c-3.212 6.441-4.912 13.647-4.945 20.86-14.249 2.582-25.108 15.046-25.108 30.059z" fill="#d781d9"/><g fill="#14e499"><path d="m458.966 334.671h-21.317c-2.821-5.804-6.108-11.415-9.873-16.774h23.528c2.926 5.41 5.552 10.979 7.662 16.774z"/><path d="m463.651 351.446c1.204 5.661 1.957 11.431 2.367 17.26l-17.737-.353c-.912-5.744-2.25-11.389-3.974-16.907z"/><path d="m449.703 385.164 16.398.327c-.836 12.598-3.58 24.885-8.064 36.534-5.355-7.976-8.242-17.37-8.242-27.198v-7.306c0-.788-.075-1.569-.092-2.357z"/><path d="m440.333 301.123h-22.381c-4.375-9.25-7.371-19.063-8.851-29.212l6.2 4.52c9.613 7.012 17.904 15.433 25.032 24.692z"/></g></svg>
