<?xml version="1.0" standalone="no"?>
<!DOCTYPE svg PUBLIC "-//W3C//DTD SVG 20010904//EN"
 "http://www.w3.org/TR/2001/REC-SVG-20010904/DTD/svg10.dtd">
<svg version="1.0" xmlns="http://www.w3.org/2000/svg"
 width="512.000000pt" height="512.000000pt" viewBox="0 0 512.000000 512.000000"
 preserveAspectRatio="xMidYMid meet">
<metadata>
Created by potrace 1.14, written by Peter Selinger 2001-2017
</metadata>
<g transform="translate(0.000000,512.000000) scale(0.100000,-0.100000)"
fill="#000000" stroke="none">
<path d="M2494 5112 c-43 -14 -94 -58 -119 -103 -32 -60 -32 -113 4 -249 l27
-104 -68 -33 c-132 -63 -239 -157 -322 -281 -76 -115 -111 -198 -175 -419 -17
-57 -29 -78 -57 -101 -49 -41 -83 -47 -94 -17 -15 40 -103 122 -160 151 -117
59 -270 28 -358 -71 -40 -45 -98 -147 -106 -187 -3 -13 -10 -41 -16 -63 -21
-83 -25 -124 -24 -265 2 -112 7 -163 23 -225 44 -168 130 -293 238 -346 69
-34 198 -34 263 -1 56 29 112 82 151 144 34 52 66 68 153 73 100 6 175 -49
183 -132 6 -58 -1 -67 -170 -243 -149 -155 -214 -252 -255 -380 -29 -91 -34
-123 -37 -218 -7 -275 109 -497 359 -685 110 -83 180 -103 211 -61 9 14 19 12
78 -12 61 -25 67 -30 67 -56 0 -40 37 -71 102 -87 151 -38 230 -108 264 -234
32 -120 0 -250 -80 -325 -116 -108 -370 -86 -657 57 -103 52 -143 65 -198 63
-139 -5 -255 -129 -250 -267 2 -33 9 -77 17 -98 19 -46 86 -116 138 -142 21
-10 51 -28 67 -38 15 -10 27 -16 27 -14 0 3 26 -8 59 -23 70 -34 228 -83 326
-101 39 -7 140 -13 225 -13 125 0 175 4 259 23 320 70 586 234 796 489 58 70
69 110 40 142 -14 15 -12 23 22 83 34 59 41 65 65 60 26 -5 77 21 78 40 0 5
11 33 25 63 46 100 84 243 120 454 4 19 8 94 9 165 4 150 -15 267 -63 383
l-28 71 41 16 c164 66 292 149 344 222 29 40 34 62 36 138 5 182 -154 349
-337 354 l-28 1 36 55 c19 31 35 60 35 65 0 6 3 10 8 10 4 0 12 10 18 23 6 12
29 59 53 104 54 104 57 124 28 159 l-24 27 28 66 c19 45 33 66 46 67 46 2 54
6 69 28 23 37 63 186 83 316 43 271 12 508 -94 721 -172 348 -492 591 -919
699 -124 31 -156 37 -293 54 -75 10 -268 15 -289 8z"/>
</g>
</svg>
